<svg width="188" height="76" viewBox="0 0 188 76" fill="none" xmlns="http://www.w3.org/2000/svg">
<path fill-rule="evenodd" clip-rule="evenodd" d="M23 4H13C5.8203 4 0 9.8203 0 17V63C0 70.1797 5.8203 76 13 76H175C182.18 76 188 70.1797 188 63V17C188 9.8203 182.18 4 175 4H165V6H175C181.075 6 186 10.9249 186 17V63C186 69.0751 181.075 74 175 74H13C6.92487 74 2 69.0751 2 63V17C2 10.9249 6.92487 6 13 6H23V4Z" fill="#E0E0E0"/>
<mask id="path-2-inside-1_1_48" fill="white">
<path fill-rule="evenodd" clip-rule="evenodd" d="M6 17C6 13.134 9.13401 10 13 10H94H175C178.866 10 182 13.134 182 17V63C182 66.866 178.866 70 175 70H94H13C9.13401 70 6 66.866 6 63V17ZM122 40C122 55.464 109.464 68 94 68C78.536 68 66 55.464 66 40C66 24.536 78.536 12 94 12C109.464 12 122 24.536 122 40Z"/>
</mask>
<path fill-rule="evenodd" clip-rule="evenodd" d="M6 17C6 13.134 9.13401 10 13 10H94H175C178.866 10 182 13.134 182 17V63C182 66.866 178.866 70 175 70H94H13C9.13401 70 6 66.866 6 63V17ZM122 40C122 55.464 109.464 68 94 68C78.536 68 66 55.464 66 40C66 24.536 78.536 12 94 12C109.464 12 122 24.536 122 40Z" fill="white"/>
<path d="M13 8C8.02944 8 4 12.0294 4 17H8C8 14.2386 10.2386 12 13 12V8ZM94 8H13V12H94V8ZM175 8H94V12H175V8ZM184 17C184 12.0294 179.971 8 175 8V12C177.761 12 180 14.2386 180 17H184ZM184 63V17H180V63H184ZM175 72C179.971 72 184 67.9706 184 63H180C180 65.7614 177.761 68 175 68V72ZM94 72H175V68H94V72ZM13 72H94V68H13V72ZM4 63C4 67.9706 8.02944 72 13 72V68C10.2386 68 8 65.7614 8 63H4ZM4 17V63H8V17H4ZM94 70C110.569 70 124 56.5685 124 40H120C120 54.3594 108.359 66 94 66V70ZM64 40C64 56.5685 77.4315 70 94 70V66C79.6406 66 68 54.3594 68 40H64ZM94 10C77.4315 10 64 23.4315 64 40H68C68 25.6406 79.6406 14 94 14V10ZM124 40C124 23.4315 110.569 10 94 10V14C108.359 14 120 25.6406 120 40H124Z" fill="white" fill-opacity="0.52" mask="url(#path-2-inside-1_1_48)"/>
<path d="M153 3C153 1.34315 154.343 0 156 0H164C165.657 0 167 1.34315 167 3V10H153V3Z" fill="#E0E0E0"/>
<path d="M21 3C21 1.34315 22.3431 0 24 0H42C43.6569 0 45 1.34315 45 3V10H21V3Z" fill="#E0E0E0"/>
<path d="M55 3C55 1.34315 56.3431 0 58 0H66C67.6569 0 69 1.34315 69 3V10H55V3Z" fill="#E0E0E0"/>
<path d="M119 3C119 1.34315 120.343 0 122 0H140C141.657 0 143 1.34315 143 3V10H119V3Z" fill="#E0E0E0"/>
<circle cx="94" cy="40" r="28" fill="white" stroke="white" stroke-width="4"/>
</svg>
